<svg xmlns="http://www.w3.org/2000/svg" xmlns:xlink="http://www.w3.org/1999/xlink" aria-hidden="true" role="img" width="35.93" height="32" viewBox="0 0 256 228"><path fill="#00D8FF" d="M210.483 73.824a171.49 171.49 0 0 0-8.24-2.597c.465-1.9.893-3.777 1.273-5.621c6.238-30.281 2.16-54.676-11.769-62.708c-13.355-7.7-35.196.329-57.254 19.526a171.23 171.23 0 0 0-6.375 5.848a155.866 155.866 0 0 0-4.241-3.917C100.759 3.829 77.587-4.822 63.673 3.233C50.33 10.957 46.379 33.89 51.995 62.588a170.974 170.974 0 0 0 1.892 8.48c-3.28.932-6.445 1.924-9.474 2.98C17.309 83.498 0 98.307 0 113.668c0 15.865 18.582 31.778 46.812 41.427a145.52 145.52 0 0 0 6.921 2.165a167.467 167.467 0 0 0-2.01 9.138c-5.354 28.2-1.173 50.591 12.134 58.266c13.744 7.926 36.812-.22 59.273-19.855a145.567 145.567 0 0 0 5.342-4.923a168.064 168.064 0 0 0 6.92 6.314c21.758 18.722 43.246 26.282 56.54 18.586c13.731-7.949 18.194-32.003 12.4-61.268a145.016 145.016 0 0 0-1.535-6.842c1.62-.48 3.21-.974 4.76-1.488c29.348-9.723 48.443-25.443 48.443-41.52c0-15.417-18.583-30.326-46.129-39.914Zm-6.959 52.326c-1.369.4-2.814.777-4.321 1.134a87.804 87.804 0 0 0-3.537-10.98a88.08 88.08 0 0 0 3.211-10.915c2.965.718 5.756 1.498 8.345 2.322c15.522 5.145 24.988 12.375 24.988 18.515c0 6.867-10.745 14.563-28.686 19.924Zm-13.683 17.68c-1.329 7.591-2.882 14.763-4.568 21.383a149.7 149.7 0 0 0-12.53-2.695a149.522 149.522 0 0 0 3.776-5.504c2.073-3.225 4.042-6.538 5.912-9.927a96.465 96.465 0 0 0 7.41-3.257Zm-23.373 36.074c-7.067 6.659-14.438 12.314-21.456 16.596c-7.531 4.605-14.687 7.078-20.651 7.078c-2.941 0-5.656-.56-8.105-1.673c-8.945-4.124-13.389-14.845-12.573-29.991a86.958 86.958 0 0 0 17.198 5.882a86.565 86.565 0 0 0 17.603 1.748a86.555 86.555 0 0 0 17.6-1.748a87.152 87.152 0 0 0 17.199-5.882c-.24 2.925-.697 5.753-1.363 8.376c-.407 1.612-.861 3.177-1.452 4.614ZM128 157.152c-7.887 0-14.995-1.312-20.972-3.567c6.488-2.452 12.598-5.84 18.138-10.038a95.27 95.27 0 0 0 5.696 0c5.54 4.197 11.65 7.586 18.138 10.038c-5.977 2.255-13.085 3.567-20.972 3.567h-.028Zm29.533-23.402c-3.873 2.765-7.895 5.2-12.01 7.283a95.376 95.376 0 0 0-6.963-3.833a95.14 95.14 0 0 0-7.044-3.118c3.65-1.948 7.189-4.203 10.577-6.734a95.27 95.27 0 0 0 5.45 3.175a95.05 95.05 0 0 0 9.99 3.227Zm-68.99.048a95.376 95.376 0 0 0 9.99-3.227a95.27 95.27 0 0 0 5.45-3.175c3.388 2.531 6.927 4.786 10.577 6.734a95.14 95.14 0 0 0-7.044 3.118a95.376 95.376 0 0 0-6.963 3.833c-4.115-2.083-8.137-4.518-12.01-7.283ZM128 99.682c7.887 0 14.995 1.312 20.972 3.567c-6.488 2.452-12.598 5.84-18.138 10.038a95.27 95.27 0 0 0-5.696 0c-5.54-4.197-11.65-7.586-18.138-10.038c5.977-2.255 13.085-3.567 20.972-3.567h.028ZM128 74.848c-3.773 0-7.651.307-11.597.914a89.08 89.08 0 0 0 5.796 5.491a89.09 89.09 0 0 0 5.796-5.491c3.946.607 7.824.914 11.597.914h-.602c-3.773 0-7.651-.307-11.597-.914Zm-38.484 8.665c6.488 2.452 12.598 5.84 18.138 10.038a95.27 95.27 0 0 0-5.696 0c-5.54-4.197-11.65-7.586-18.138-10.038c5.977-2.255 13.085-3.567 20.972-3.567h.028c-7.887 0-14.995 1.312-20.972 3.567h-.332Z"/><circle cx="128" cy="114" r="23" fill="#00D8FF"/></svg>
